<?xml version="1.0" encoding="UTF-8" standalone="no"?>
<!DOCTYPE svg PUBLIC "-//W3C//DTD SVG 1.1//EN"
 "http://www.w3.org/Graphics/SVG/1.1/DTD/svg11.dtd">
<!-- Generated by graphviz version 14.1.1 (20251213.1925)
 -->
<!-- Title: reittiopas Pages: 1 -->
<svg width="1176pt" height="729pt"
 viewBox="0.00 0.00 1176.00 729.00" xmlns="http://www.w3.org/2000/svg" xmlns:xlink="http://www.w3.org/1999/xlink">
<g id="graph0" class="graph" transform="scale(1 1) rotate(0) translate(4 724.75)">
<title>reittiopas</title>
<text xml:space="preserve" text-anchor="middle" x="584.24" y="-703.45" font-family="Arial" font-size="14.00">Reittiopas &#45; Bus network (stops, roads, durations)</text>
<g id="clust1" class="cluster">
<title>cluster_legend</title>
<path fill="none" stroke="#cccccc" d="M20,-615C20,-615 427.2,-615 427.2,-615 433.2,-615 439.2,-621 439.2,-627 439.2,-627 439.2,-677 439.2,-677 439.2,-683 433.2,-689 427.2,-689 427.2,-689 20,-689 20,-689 14,-689 8,-683 8,-677 8,-677 8,-627 8,-627 8,-621 14,-615 20,-615"/>
<text xml:space="preserve" text-anchor="middle" x="223.6" y="-674.55" font-family="Arial" font-size="11.00">Lines</text>
</g>
<!-- A -->
<g id="node1" class="node">
<title>A</title>
<ellipse fill="white" stroke="#666666" cx="50.2" cy="-475" rx="18" ry="18"/>
<text xml:space="preserve" text-anchor="middle" x="50.2" y="-469.57" font-family="Arial" font-size="14.00">A</text>
</g>
<!-- B -->
<g id="node2" class="node">
<title>B</title>
<ellipse fill="white" stroke="#666666" cx="174.6" cy="-475" rx="18" ry="18"/>
<text xml:space="preserve" text-anchor="middle" x="174.6" y="-469.57" font-family="Arial" font-size="14.00">B</text>
</g>
<!-- A&#45;&#45;B -->
<g id="edge1" class="edge">
<title>A&#45;&#45;B</title>
<path fill="none" stroke="green" stroke-width="2" d="M68.48,-475C91.81,-475 133.13,-475 156.41,-475"/>
<text xml:space="preserve" text-anchor="middle" x="112.03" y="-476.95" font-family="Arial" font-size="9.00" fill="#666666">3</text>
</g>
<!-- C -->
<g id="node3" class="node">
<title>C</title>
<ellipse fill="white" stroke="#666666" cx="174.6" cy="-385" rx="18" ry="18"/>
<text xml:space="preserve" text-anchor="middle" x="174.6" y="-379.57" font-family="Arial" font-size="14.00">C</text>
</g>
<!-- A&#45;&#45;C -->
<g id="edge4" class="edge">
<title>A&#45;&#45;C</title>
<path fill="none" stroke="green" stroke-width="2" d="M65.24,-464.68C88.85,-447.32 136.22,-412.48 159.72,-395.2"/>
<text xml:space="preserve" text-anchor="middle" x="112.03" y="-431.95" font-family="Arial" font-size="9.00" fill="#666666">1</text>
</g>
<!-- D -->
<g id="node4" class="node">
<title>D</title>
<ellipse fill="white" stroke="#666666" cx="402.63" cy="-385" rx="18" ry="18"/>
<text xml:space="preserve" text-anchor="middle" x="402.63" y="-379.57" font-family="Arial" font-size="14.00">D</text>
</g>
<!-- B&#45;&#45;D -->
<g id="edge2" class="edge">
<title>B&#45;&#45;D</title>
<path fill="none" stroke="green" stroke-width="2" d="M192.58,-470.69C224.2,-462.36 293.9,-442.61 349.05,-417 362.62,-410.7 377.07,-401.72 387.38,-394.88"/>
<text xml:space="preserve" text-anchor="middle" x="291.8" y="-450.9" font-family="Arial" font-size="9.00" fill="#666666">2</text>
</g>
<!-- C&#45;&#45;D -->
<g id="edge5" class="edge">
<title>C&#45;&#45;D</title>
<path fill="none" stroke="red" stroke-width="2" d="M192.96,-385C235.03,-385 342.07,-385 384.21,-385"/>
<text xml:space="preserve" text-anchor="middle" x="291.8" y="-386.95" font-family="Arial" font-size="9.00" fill="#666666">5</text>
</g>
<!-- E -->
<g id="node5" class="node">
<title>E</title>
<ellipse fill="white" stroke="#666666" cx="291.8" cy="-279" rx="18" ry="18"/>
<text xml:space="preserve" text-anchor="middle" x="291.8" y="-273.57" font-family="Arial" font-size="14.00">E</text>
</g>
<!-- C&#45;&#45;E -->
<g id="edge6" class="edge">
<title>C&#45;&#45;E</title>
<path fill="none" stroke="green" stroke-width="2" d="M188.37,-373.25C210.51,-352.88 255.79,-311.21 277.97,-290.8"/>
<text xml:space="preserve" text-anchor="middle" x="237.18" y="-330.77" font-family="Arial" font-size="9.00" fill="#666666">2</text>
</g>
<!-- D&#45;&#45;A -->
<g id="edge3" class="edge">
<title>D&#45;&#45;A</title>
<path fill="none" stroke="#8c8c8c" d="M391.77,-399.86C382.01,-413.86 366.09,-434.88 349.05,-450 297.89,-495.4 276.6,-501.46 209.55,-515 179.1,-521.15 170.02,-521.55 139.65,-515 112.3,-509.1 83.23,-494.04 66.17,-484.17"/>
<text xml:space="preserve" text-anchor="middle" x="237.18" y="-511.63" font-family="Arial" font-size="9.00" fill="#666666">1</text>
</g>
<!-- R -->
<g id="node18" class="node">
<title>R</title>
<ellipse fill="white" stroke="#666666" cx="784.34" cy="-385" rx="18" ry="18"/>
<text xml:space="preserve" text-anchor="middle" x="784.34" y="-379.57" font-family="Arial" font-size="14.00">R</text>
</g>
<!-- D&#45;&#45;R -->
<g id="edge26" class="edge">
<title>D&#45;&#45;R</title>
<path fill="none" stroke="red" stroke-width="2" d="M420.96,-385C440.89,-385 474.6,-385 503.58,-385 503.58,-385 503.58,-385 693.46,-385 718.74,-385 748.02,-385 766.11,-385"/>
<text xml:space="preserve" text-anchor="middle" x="601.21" y="-386.95" font-family="Arial" font-size="9.00" fill="#666666">6</text>
</g>
<!-- E&#45;&#45;D -->
<g id="edge7" class="edge">
<title>E&#45;&#45;D</title>
<path fill="none" stroke="blue" stroke-width="2" d="M305.28,-291.16C326.16,-311.5 367.95,-352.19 388.95,-372.66"/>
<text xml:space="preserve" text-anchor="middle" x="346.43" y="-333.95" font-family="Arial" font-size="9.00" fill="#666666">3</text>
</g>
<!-- F -->
<g id="node6" class="node">
<title>F</title>
<ellipse fill="white" stroke="#666666" cx="402.63" cy="-176" rx="18" ry="18"/>
<text xml:space="preserve" text-anchor="middle" x="402.63" y="-170.57" font-family="Arial" font-size="14.00">F</text>
</g>
<!-- E&#45;&#45;F -->
<g id="edge8" class="edge">
<title>E&#45;&#45;F</title>
<path fill="none" stroke="#595959" stroke-width="2" d="M305.28,-267.18C326.16,-247.42 367.95,-207.88 388.95,-187.99"/>
<text xml:space="preserve" text-anchor="middle" x="346.43" y="-232.54" font-family="Arial" font-size="9.00" fill="#666666">1</text>
</g>
<!-- M -->
<g id="node13" class="node">
<title>M</title>
<ellipse fill="white" stroke="#666666" cx="784.34" cy="-277" rx="18.63" ry="18.63"/>
<text xml:space="preserve" text-anchor="middle" x="784.34" y="-271.57" font-family="Arial" font-size="14.00">M</text>
</g>
<!-- E&#45;&#45;M -->
<g id="edge17" class="edge">
<title>E&#45;&#45;M</title>
<path fill="none" stroke="blue" stroke-width="2" d="M310.14,-278.48C331.61,-277.89 369.31,-277 401.63,-277 401.63,-277 401.63,-277 693.46,-277 718.43,-277 747.29,-277 765.43,-277"/>
<text xml:space="preserve" text-anchor="middle" x="552.96" y="-278.95" font-family="Arial" font-size="9.00" fill="#666666">10</text>
</g>
<!-- G -->
<g id="node7" class="node">
<title>G</title>
<ellipse fill="white" stroke="#666666" cx="504.58" cy="-158" rx="18.13" ry="18.13"/>
<text xml:space="preserve" text-anchor="middle" x="504.58" y="-152.57" font-family="Arial" font-size="14.00">G</text>
</g>
<!-- F&#45;&#45;G -->
<g id="edge9" class="edge">
<title>F&#45;&#45;G</title>
<path fill="none" stroke="#595959" stroke-width="2" d="M420.58,-172.95C438.96,-169.64 468.13,-164.38 486.54,-161.07"/>
<text xml:space="preserve" text-anchor="middle" x="458.83" y="-168.41" font-family="Arial" font-size="9.00" fill="#666666">1</text>
</g>
<!-- H -->
<g id="node8" class="node">
<title>H</title>
<ellipse fill="white" stroke="#666666" cx="601.21" cy="-18" rx="18" ry="18"/>
<text xml:space="preserve" text-anchor="middle" x="601.21" y="-12.57" font-family="Arial" font-size="14.00">H</text>
</g>
<!-- G&#45;&#45;H -->
<g id="edge10" class="edge">
<title>G&#45;&#45;H</title>
<path fill="none" stroke="green" stroke-width="2" d="M513.17,-141.47C520.94,-125.17 533.83,-99.8 547.71,-79.5 560.07,-61.42 576.86,-42.54 588.09,-30.54"/>
<text xml:space="preserve" text-anchor="middle" x="552.96" y="-81.45" font-family="Arial" font-size="9.00" fill="#666666">2</text>
</g>
<!-- K -->
<g id="node11" class="node">
<title>K</title>
<ellipse fill="white" stroke="#666666" cx="601.21" cy="-194" rx="18" ry="18"/>
<text xml:space="preserve" text-anchor="middle" x="601.21" y="-188.57" font-family="Arial" font-size="14.00">K</text>
</g>
<!-- G&#45;&#45;K -->
<g id="edge14" class="edge">
<title>G&#45;&#45;K</title>
<path fill="none" stroke="gold" stroke-width="2" d="M522.06,-164.27C539.43,-170.88 566.62,-181.22 583.92,-187.8"/>
<text xml:space="preserve" text-anchor="middle" x="552.96" y="-179.03" font-family="Arial" font-size="9.00" fill="#666666">8</text>
</g>
<!-- I -->
<g id="node9" class="node">
<title>I</title>
<ellipse fill="white" stroke="#666666" cx="692.46" cy="-83" rx="18" ry="18"/>
<text xml:space="preserve" text-anchor="middle" x="692.46" y="-77.58" font-family="Arial" font-size="14.00">I</text>
</g>
<!-- H&#45;&#45;I -->
<g id="edge11" class="edge">
<title>H&#45;&#45;I</title>
<path fill="none" stroke="green" stroke-width="2" d="M616.16,-28.16C632.82,-40.3 660.56,-60.5 677.32,-72.7"/>
<text xml:space="preserve" text-anchor="middle" x="646.84" y="-52.45" font-family="Arial" font-size="9.00" fill="#666666">2</text>
</g>
<!-- I&#45;&#45;G -->
<g id="edge13" class="edge">
<title>I&#45;&#45;G</title>
<path fill="none" stroke="#8c8c8c" d="M675.19,-89.56C639.95,-103.78 556.9,-137.29 521.75,-151.48"/>
<text xml:space="preserve" text-anchor="middle" x="601.21" y="-127.44" font-family="Arial" font-size="9.00" fill="#666666">1</text>
</g>
<!-- J -->
<g id="node10" class="node">
<title>J</title>
<ellipse fill="white" stroke="#666666" cx="784.34" cy="-83" rx="18" ry="18"/>
<text xml:space="preserve" text-anchor="middle" x="784.34" y="-77.58" font-family="Arial" font-size="14.00">J</text>
</g>
<!-- I&#45;&#45;J -->
<g id="edge12" class="edge">
<title>I&#45;&#45;J</title>
<path fill="none" stroke="green" stroke-width="2" d="M710.79,-83C726.71,-83 750.16,-83 766.06,-83"/>
<text xml:space="preserve" text-anchor="middle" x="738.09" y="-84.95" font-family="Arial" font-size="9.00" fill="#666666">1</text>
</g>
<!-- L -->
<g id="node12" class="node">
<title>L</title>
<ellipse fill="white" stroke="#666666" cx="692.46" cy="-194" rx="18" ry="18"/>
<text xml:space="preserve" text-anchor="middle" x="692.46" y="-188.57" font-family="Arial" font-size="14.00">L</text>
</g>
<!-- K&#45;&#45;L -->
<g id="edge15" class="edge">
<title>K&#45;&#45;L</title>
<path fill="none" stroke="gold" stroke-width="2" d="M619.42,-194C635.12,-194 658.22,-194 674,-194"/>
<text xml:space="preserve" text-anchor="middle" x="646.84" y="-195.95" font-family="Arial" font-size="9.00" fill="#666666">1</text>
</g>
<!-- L&#45;&#45;M -->
<g id="edge16" class="edge">
<title>L&#45;&#45;M</title>
<path fill="none" stroke="gold" stroke-width="2" d="M706.93,-205.09C716.51,-213.08 729.6,-224.23 740.71,-234.5 751.15,-244.15 762.52,-255.54 770.9,-264.1"/>
<text xml:space="preserve" text-anchor="middle" x="738.09" y="-236.45" font-family="Arial" font-size="9.00" fill="#666666">1</text>
</g>
<!-- N -->
<g id="node14" class="node">
<title>N</title>
<ellipse fill="white" stroke="#666666" cx="876.22" cy="-277" rx="18" ry="18"/>
<text xml:space="preserve" text-anchor="middle" x="876.22" y="-271.57" font-family="Arial" font-size="14.00">N</text>
</g>
<!-- M&#45;&#45;N -->
<g id="edge18" class="edge">
<title>M&#45;&#45;N</title>
<path fill="none" stroke="#595959" stroke-width="2" d="M803.1,-277C818.96,-277 842.05,-277 857.8,-277"/>
<text xml:space="preserve" text-anchor="middle" x="830.59" y="-278.95" font-family="Arial" font-size="9.00" fill="#666666">2</text>
</g>
<!-- O -->
<g id="node15" class="node">
<title>O</title>
<ellipse fill="white" stroke="#666666" cx="967.6" cy="-194" rx="18.13" ry="18.13"/>
<text xml:space="preserve" text-anchor="middle" x="967.6" y="-188.57" font-family="Arial" font-size="14.00">O</text>
</g>
<!-- N&#45;&#45;O -->
<g id="edge19" class="edge">
<title>N&#45;&#45;O</title>
<path fill="none" stroke="#595959" stroke-width="2" d="M889.44,-264.07C897.68,-255.5 908.89,-244.11 919.22,-234.5 930.31,-224.18 943.44,-213.04 953.06,-205.05"/>
<text xml:space="preserve" text-anchor="middle" x="921.84" y="-236.45" font-family="Arial" font-size="9.00" fill="#666666">2</text>
</g>
<!-- Q -->
<g id="node17" class="node">
<title>Q</title>
<ellipse fill="white" stroke="#666666" cx="1150.36" cy="-239" rx="18.13" ry="18.13"/>
<text xml:space="preserve" text-anchor="middle" x="1150.36" y="-233.57" font-family="Arial" font-size="14.00">Q</text>
</g>
<!-- N&#45;&#45;Q -->
<g id="edge23" class="edge">
<title>N&#45;&#45;Q</title>
<path fill="none" stroke="red" stroke-width="2" d="M894.68,-276.01C933.31,-273.61 1028.77,-266.5 1107.23,-251 1115.73,-249.32 1125.02,-246.76 1132.7,-244.43"/>
<text xml:space="preserve" text-anchor="middle" x="1013.35" y="-267.36" font-family="Arial" font-size="9.00" fill="#666666">1</text>
</g>
<!-- P -->
<g id="node16" class="node">
<title>P</title>
<ellipse fill="white" stroke="#666666" cx="1058.98" cy="-97" rx="18" ry="18"/>
<text xml:space="preserve" text-anchor="middle" x="1058.98" y="-91.58" font-family="Arial" font-size="14.00">P</text>
</g>
<!-- O&#45;&#45;P -->
<g id="edge20" class="edge">
<title>O&#45;&#45;P</title>
<path fill="none" stroke="red" stroke-width="2" d="M980.65,-180.92C997.81,-162.3 1029.07,-128.38 1046.12,-109.87"/>
<text xml:space="preserve" text-anchor="middle" x="1013.35" y="-147.45" font-family="Arial" font-size="9.00" fill="#666666">2</text>
</g>
<!-- O&#45;&#45;Q -->
<g id="edge21" class="edge">
<title>O&#45;&#45;Q</title>
<path fill="none" stroke="#8c8c8c" d="M985.6,-198.23C1020.06,-206.81 1097.74,-226.15 1132.27,-234.74"/>
<text xml:space="preserve" text-anchor="middle" x="1058.98" y="-222.92" font-family="Arial" font-size="9.00" fill="#666666">1</text>
</g>
<!-- P&#45;&#45;Q -->
<g id="edge22" class="edge">
<title>P&#45;&#45;Q</title>
<path fill="none" stroke="#8c8c8c" d="M1071.19,-110.19C1081.23,-122.32 1096.06,-141.03 1107.23,-158.5 1120.82,-179.77 1133.88,-205.9 1141.76,-222.5"/>
<text xml:space="preserve" text-anchor="middle" x="1104.6" y="-160.45" font-family="Arial" font-size="9.00" fill="#666666">2</text>
</g>
<!-- Q&#45;&#45;R -->
<g id="edge24" class="edge">
<title>Q&#45;&#45;R</title>
<path fill="none" stroke="red" stroke-width="2" d="M1146.88,-257.2C1140.43,-296.33 1119.27,-385 1059.98,-385 875.22,-385 875.22,-385 875.22,-385 849.94,-385 820.66,-385 802.57,-385"/>
<text xml:space="preserve" text-anchor="middle" x="967.6" y="-386.95" font-family="Arial" font-size="9.00" fill="#666666">5</text>
</g>
<!-- R&#45;&#45;N -->
<g id="edge25" class="edge">
<title>R&#45;&#45;N</title>
<path fill="none" stroke="#8c8c8c" d="M796.72,-371.32C814.01,-350.55 846.69,-311.28 863.93,-290.57"/>
<text xml:space="preserve" text-anchor="middle" x="830.59" y="-332.95" font-family="Arial" font-size="9.00" fill="#666666">3</text>
</g>
<!-- legend_0 -->
<g id="node19" class="node">
<title>legend_0</title>
<path fill="gold" stroke="gold" d="M72.4,-659C72.4,-659 28,-659 28,-659 22,-659 16,-653 16,-647 16,-647 16,-635 16,-635 16,-629 22,-623 28,-623 28,-623 72.4,-623 72.4,-623 78.4,-623 84.4,-629 84.4,-635 84.4,-635 84.4,-647 84.4,-647 84.4,-653 78.4,-659 72.4,-659"/>
<text xml:space="preserve" text-anchor="middle" x="50.2" y="-635.58" font-family="Arial" font-size="14.00">keltainen</text>
</g>
<!-- legend_1 -->
<g id="node20" class="node">
<title>legend_1</title>
<path fill="red" stroke="red" d="M197.55,-659C197.55,-659 151.65,-659 151.65,-659 145.65,-659 139.65,-653 139.65,-647 139.65,-647 139.65,-635 139.65,-635 139.65,-629 145.65,-623 151.65,-623 151.65,-623 197.55,-623 197.55,-623 203.55,-623 209.55,-629 209.55,-635 209.55,-635 209.55,-647 209.55,-647 209.55,-653 203.55,-659 197.55,-659"/>
<text xml:space="preserve" text-anchor="middle" x="174.6" y="-635.58" font-family="Arial" font-size="14.00" fill="white">punainen</text>
</g>
<!-- legend_0&#45;&#45;legend_1 -->
<!-- legend_2 -->
<g id="node21" class="node">
<title>legend_2</title>
<path fill="green" stroke="green" d="M306.8,-659C306.8,-659 276.8,-659 276.8,-659 270.8,-659 264.8,-653 264.8,-647 264.8,-647 264.8,-635 264.8,-635 264.8,-629 270.8,-623 276.8,-623 276.8,-623 306.8,-623 306.8,-623 312.8,-623 318.8,-629 318.8,-635 318.8,-635 318.8,-647 318.8,-647 318.8,-653 312.8,-659 306.8,-659"/>
<text xml:space="preserve" text-anchor="middle" x="291.8" y="-635.58" font-family="Arial" font-size="14.00" fill="white">vihreä</text>
</g>
<!-- legend_1&#45;&#45;legend_2 -->
<!-- legend_3 -->
<g id="node22" class="node">
<title>legend_3</title>
<path fill="blue" stroke="blue" d="M419.2,-659C419.2,-659 386.05,-659 386.05,-659 380.05,-659 374.05,-653 374.05,-647 374.05,-647 374.05,-635 374.05,-635 374.05,-629 380.05,-623 386.05,-623 386.05,-623 419.2,-623 419.2,-623 425.2,-623 431.2,-629 431.2,-635 431.2,-635 431.2,-647 431.2,-647 431.2,-653 425.2,-659 419.2,-659"/>
<text xml:space="preserve" text-anchor="middle" x="402.63" y="-635.58" font-family="Arial" font-size="14.00" fill="white">sininen</text>
</g>
<!-- legend_2&#45;&#45;legend_3 -->
</g>
</svg>
